<svg width="10" height="11" viewBox="0 0 10 11" fill="none" xmlns="http://www.w3.org/2000/svg">
<path d="M9.922 0.621221V7.93372C9.922 8.04562 9.8776 8.15292 9.7985 8.23202C9.7193 8.31112 9.612 8.35562 9.5002 8.35562C9.3883 8.35562 9.281 8.31112 9.2018 8.23202C9.1227 8.15292 9.0783 8.04562 9.0783 7.93372V1.64075L0.79547 9.91652C0.71715 9.99482 0.61092 10.0388 0.50015 10.0388C0.38939 10.0388 0.28316 9.99482 0.20484 9.91652C0.12652 9.83822 0.0825195 9.73202 0.0825195 9.62122C0.0825195 9.51042 0.12652 9.40422 0.20484 9.32592L8.4806 1.0431H2.18765C2.07577 1.0431 1.96846 0.99865 1.88934 0.91953C1.81023 0.84041 1.76578 0.733111 1.76578 0.621221C1.76578 0.509331 1.81023 0.402031 1.88934 0.322911C1.96846 0.243791 2.07577 0.199351 2.18765 0.199341H9.5002C9.612 0.199351 9.7193 0.243791 9.7985 0.322911C9.8776 0.402031 9.922 0.509331 9.922 0.621221Z" fill="#0C0C0C"/>
</svg>
